<svg xmlns="http://www.w3.org/2000/svg" xmlns:xlink="http://www.w3.org/1999/xlink" width="500" zoomAndPan="magnify" viewBox="0 0 375 374.999991" height="500" preserveAspectRatio="xMidYMid meet" version="1.0"><defs><g/></defs><rect x="-37.5" width="450" fill="#ffffff" y="-37.499999" height="449.999989" fill-opacity="1"/><rect x="-37.5" width="450" fill="#ffffff" y="-37.499999" height="449.999989" fill-opacity="1"/><rect x="-37.5" width="450" fill="#ffffff" y="-37.499999" height="449.999989" fill-opacity="1"/><path stroke-linecap="butt" transform="matrix(0.751576, 0, 0, 0.75, 91.066859, 208.771597)" fill="none" stroke-linejoin="miter" d="M -0.000601762 5.002455 L 148.6921 5.002455 " stroke="#000000" stroke-width="10" stroke-opacity="1" stroke-miterlimit="4"/><g fill="#000000" fill-opacity="1"><g transform="translate(91.066859, 195.564269)"><g><path d="M 15.90625 0.703125 C 13.050781 0.703125 10.28125 0.351562 7.59375 -0.34375 C 4.914062 -1.050781 2.738281 -1.992188 1.0625 -3.171875 L 4.328125 -10.515625 C 5.910156 -9.484375 7.738281 -8.644531 9.8125 -8 C 11.894531 -7.363281 13.941406 -7.046875 15.953125 -7.046875 C 19.785156 -7.046875 21.703125 -8.003906 21.703125 -9.921875 C 21.703125 -10.921875 21.15625 -11.664062 20.0625 -12.15625 C 18.96875 -12.644531 17.210938 -13.15625 14.796875 -13.6875 C 12.148438 -14.257812 9.9375 -14.875 8.15625 -15.53125 C 6.375 -16.1875 4.84375 -17.234375 3.5625 -18.671875 C 2.289062 -20.117188 1.65625 -22.066406 1.65625 -24.515625 C 1.65625 -26.660156 2.242188 -28.597656 3.421875 -30.328125 C 4.597656 -32.054688 6.351562 -33.425781 8.6875 -34.4375 C 11.019531 -35.445312 13.878906 -35.953125 17.265625 -35.953125 C 19.578125 -35.953125 21.859375 -35.691406 24.109375 -35.171875 C 26.359375 -34.648438 28.34375 -33.882812 30.0625 -32.875 L 26.984375 -25.46875 C 23.628906 -27.28125 20.375 -28.1875 17.21875 -28.1875 C 15.238281 -28.1875 13.796875 -27.894531 12.890625 -27.3125 C 11.984375 -26.726562 11.53125 -25.960938 11.53125 -25.015625 C 11.53125 -24.078125 12.066406 -23.375 13.140625 -22.90625 C 14.210938 -22.4375 15.941406 -21.953125 18.328125 -21.453125 C 21.015625 -20.878906 23.238281 -20.265625 25 -19.609375 C 26.757812 -18.953125 28.285156 -17.910156 29.578125 -16.484375 C 30.867188 -15.054688 31.515625 -13.117188 31.515625 -10.671875 C 31.515625 -8.554688 30.925781 -6.640625 29.75 -4.921875 C 28.570312 -3.210938 26.804688 -1.847656 24.453125 -0.828125 C 22.109375 0.191406 19.257812 0.703125 15.90625 0.703125 Z M 15.90625 0.703125 "/></g></g></g><g fill="#000000" fill-opacity="1"><g transform="translate(128.017556, 195.564269)"><g><path d="M 19.78125 -21.140625 C 22.707031 -20.535156 24.945312 -19.332031 26.5 -17.53125 C 28.0625 -15.738281 28.84375 -13.570312 28.84375 -11.03125 C 28.84375 -8.945312 28.28125 -7.015625 27.15625 -5.234375 C 26.03125 -3.453125 24.316406 -2.015625 22.015625 -0.921875 C 19.722656 0.160156 16.878906 0.703125 13.484375 0.703125 C 11.003906 0.703125 8.546875 0.398438 6.109375 -0.203125 C 3.679688 -0.804688 1.578125 -1.660156 -0.203125 -2.765625 L 3.421875 -10.265625 C 4.796875 -9.328125 6.347656 -8.601562 8.078125 -8.09375 C 9.804688 -7.59375 11.507812 -7.34375 13.1875 -7.34375 C 14.894531 -7.34375 16.253906 -7.660156 17.265625 -8.296875 C 18.273438 -8.941406 18.78125 -9.851562 18.78125 -11.03125 C 18.78125 -13.3125 16.984375 -14.453125 13.390625 -14.453125 L 9.21875 -14.453125 L 9.21875 -20.734375 L 15.5 -27.53125 L 1.609375 -27.53125 L 1.609375 -35.234375 L 27.078125 -35.234375 L 27.078125 -29 Z M 19.78125 -21.140625 "/></g></g></g><g fill="#000000" fill-opacity="1"><g transform="translate(162.753264, 195.564269)"><g><path d="M 30.609375 -18.375 C 32.617188 -17.664062 34.191406 -16.566406 35.328125 -15.078125 C 36.472656 -13.585938 37.046875 -11.785156 37.046875 -9.671875 C 37.046875 -6.578125 35.804688 -4.191406 33.328125 -2.515625 C 30.847656 -0.835938 27.253906 0 22.546875 0 L 3.53125 0 L 3.53125 -35.234375 L 21.546875 -35.234375 C 26.046875 -35.234375 29.46875 -34.398438 31.8125 -32.734375 C 34.164062 -31.078125 35.34375 -28.84375 35.34375 -26.03125 C 35.34375 -24.351562 34.929688 -22.847656 34.109375 -21.515625 C 33.285156 -20.191406 32.117188 -19.144531 30.609375 -18.375 Z M 13.390625 -28.046875 L 13.390625 -21.25 L 20.234375 -21.25 C 23.585938 -21.25 25.265625 -22.390625 25.265625 -24.671875 C 25.265625 -26.921875 23.585938 -28.046875 20.234375 -28.046875 Z M 21.75 -7.203125 C 25.238281 -7.203125 26.984375 -8.394531 26.984375 -10.78125 C 26.984375 -13.15625 25.238281 -14.34375 21.75 -14.34375 L 13.390625 -14.34375 L 13.390625 -7.203125 Z M 21.75 -7.203125 "/></g></g></g><g fill="#000000" fill-opacity="1"><g transform="translate(205.845542, 195.564269)"><g><path d="M 28.953125 -7.90625 L 28.953125 0 L 1.515625 0 L 1.515625 -6.25 L 14.703125 -18.578125 C 15.972656 -19.785156 16.828125 -20.816406 17.265625 -21.671875 C 17.703125 -22.523438 17.921875 -23.390625 17.921875 -24.265625 C 17.921875 -25.410156 17.535156 -26.300781 16.765625 -26.9375 C 15.992188 -27.570312 14.867188 -27.890625 13.390625 -27.890625 C 12.078125 -27.890625 10.875 -27.59375 9.78125 -27 C 8.695312 -26.414062 7.800781 -25.570312 7.09375 -24.46875 L -0.296875 -28.59375 C 1.078125 -30.875 3.003906 -32.671875 5.484375 -33.984375 C 7.972656 -35.296875 10.910156 -35.953125 14.296875 -35.953125 C 16.984375 -35.953125 19.359375 -35.515625 21.421875 -34.640625 C 23.484375 -33.765625 25.09375 -32.507812 26.25 -30.875 C 27.40625 -29.25 27.984375 -27.363281 27.984375 -25.21875 C 27.984375 -23.3125 27.570312 -21.507812 26.75 -19.8125 C 25.9375 -18.113281 24.351562 -16.191406 22 -14.046875 L 15.359375 -7.90625 Z M 28.953125 -7.90625 "/></g></g></g><g fill="#000000" fill-opacity="1"><g transform="translate(240.379894, 195.564269)"><g><path d="M 30.609375 -18.375 C 32.617188 -17.664062 34.191406 -16.566406 35.328125 -15.078125 C 36.472656 -13.585938 37.046875 -11.785156 37.046875 -9.671875 C 37.046875 -6.578125 35.804688 -4.191406 33.328125 -2.515625 C 30.847656 -0.835938 27.253906 0 22.546875 0 L 3.53125 0 L 3.53125 -35.234375 L 21.546875 -35.234375 C 26.046875 -35.234375 29.46875 -34.398438 31.8125 -32.734375 C 34.164062 -31.078125 35.34375 -28.84375 35.34375 -26.03125 C 35.34375 -24.351562 34.929688 -22.847656 34.109375 -21.515625 C 33.285156 -20.191406 32.117188 -19.144531 30.609375 -18.375 Z M 13.390625 -28.046875 L 13.390625 -21.25 L 20.234375 -21.25 C 23.585938 -21.25 25.265625 -22.390625 25.265625 -24.671875 C 25.265625 -26.921875 23.585938 -28.046875 20.234375 -28.046875 Z M 21.75 -7.203125 C 25.238281 -7.203125 26.984375 -8.394531 26.984375 -10.78125 C 26.984375 -13.15625 25.238281 -14.34375 21.75 -14.34375 L 13.390625 -14.34375 L 13.390625 -7.203125 Z M 21.75 -7.203125 "/></g></g></g><g fill="#000000" fill-opacity="1"><g transform="translate(208.34378, 215.328037)"><g><path d="M 2.28125 -6.828125 L 2.28125 -4.109375 L 6.1875 -4.109375 L 6.1875 -3.15625 L 2.28125 -3.15625 L 2.28125 0 L 1.171875 0 L 1.171875 -7.796875 L 6.671875 -7.796875 L 6.671875 -6.828125 Z M 2.28125 -6.828125 "/></g></g></g><g fill="#000000" fill-opacity="1"><g transform="translate(218.180703, 215.328037)"><g><path d="M 1.171875 -7.796875 L 2.28125 -7.796875 L 2.28125 0 L 1.171875 0 Z M 1.171875 -7.796875 "/></g></g></g><g fill="#000000" fill-opacity="1"><g transform="translate(224.397673, 215.328037)"><g><path d="M 1.171875 -7.796875 L 2.28125 -7.796875 L 2.28125 -0.96875 L 6.5 -0.96875 L 6.5 0 L 1.171875 0 Z M 1.171875 -7.796875 "/></g></g></g><g fill="#000000" fill-opacity="1"><g transform="translate(233.777926, 215.328037)"><g><path d="M 6.828125 -0.96875 L 6.828125 0 L 1.171875 0 L 1.171875 -7.796875 L 6.671875 -7.796875 L 6.671875 -6.828125 L 2.28125 -6.828125 L 2.28125 -4.4375 L 6.1875 -4.4375 L 6.1875 -3.484375 L 2.28125 -3.484375 L 2.28125 -0.96875 Z M 6.828125 -0.96875 "/></g></g></g><g fill="#000000" fill-opacity="1"><g transform="translate(244.004695, 215.328037)"><g/></g></g><g fill="#000000" fill-opacity="1"><g transform="translate(249.764994, 215.328037)"><g><path d="M 8.40625 0 L 8.390625 -5.6875 L 5.5625 -0.953125 L 5.0625 -0.953125 L 2.234375 -5.640625 L 2.234375 0 L 1.171875 0 L 1.171875 -7.796875 L 2.078125 -7.796875 L 5.34375 -2.3125 L 8.546875 -7.796875 L 9.453125 -7.796875 L 9.46875 0 Z M 8.40625 0 "/></g></g></g><g fill="#000000" fill-opacity="1"><g transform="translate(263.166179, 215.328037)"><g><path d="M 6.140625 -1.953125 L 2 -1.953125 L 1.140625 0 L -0.015625 0 L 3.515625 -7.796875 L 4.625 -7.796875 L 8.171875 0 L 7 0 Z M 5.75 -2.84375 L 4.0625 -6.65625 L 2.390625 -2.84375 Z M 5.75 -2.84375 "/></g></g></g><g fill="#000000" fill-opacity="1"><g transform="translate(274.083521, 215.328037)"><g><path d="M 7.875 -7.796875 L 7.875 0 L 6.96875 0 L 2.28125 -5.8125 L 2.28125 0 L 1.171875 0 L 1.171875 -7.796875 L 2.078125 -7.796875 L 6.765625 -1.984375 L 6.765625 -7.796875 Z M 7.875 -7.796875 "/></g></g></g><g fill="#000000" fill-opacity="1"><g transform="translate(285.891925, 215.328037)"><g><path d="M 6.140625 -1.953125 L 2 -1.953125 L 1.140625 0 L -0.015625 0 L 3.515625 -7.796875 L 4.625 -7.796875 L 8.171875 0 L 7 0 Z M 5.75 -2.84375 L 4.0625 -6.65625 L 2.390625 -2.84375 Z M 5.75 -2.84375 "/></g></g></g><g fill="#000000" fill-opacity="1"><g transform="translate(296.809267, 215.328037)"><g><path d="M 6.578125 -3.9375 L 7.640625 -3.9375 L 7.640625 -0.90625 C 7.253906 -0.582031 6.804688 -0.332031 6.296875 -0.15625 C 5.785156 0.0078125 5.25 0.09375 4.6875 0.09375 C 3.90625 0.09375 3.195312 -0.078125 2.5625 -0.421875 C 1.925781 -0.773438 1.425781 -1.253906 1.0625 -1.859375 C 0.707031 -2.460938 0.53125 -3.144531 0.53125 -3.90625 C 0.53125 -4.65625 0.707031 -5.332031 1.0625 -5.9375 C 1.425781 -6.550781 1.925781 -7.03125 2.5625 -7.375 C 3.195312 -7.71875 3.914062 -7.890625 4.71875 -7.890625 C 5.332031 -7.890625 5.894531 -7.785156 6.40625 -7.578125 C 6.914062 -7.378906 7.347656 -7.082031 7.703125 -6.6875 L 7.015625 -6 C 6.390625 -6.59375 5.632812 -6.890625 4.75 -6.890625 C 4.15625 -6.890625 3.625 -6.757812 3.15625 -6.5 C 2.6875 -6.25 2.316406 -5.894531 2.046875 -5.4375 C 1.785156 -4.976562 1.65625 -4.46875 1.65625 -3.90625 C 1.65625 -3.332031 1.785156 -2.816406 2.046875 -2.359375 C 2.316406 -1.910156 2.6875 -1.554688 3.15625 -1.296875 C 3.625 -1.035156 4.15625 -0.90625 4.75 -0.90625 C 5.445312 -0.90625 6.054688 -1.070312 6.578125 -1.40625 Z M 6.578125 -3.9375 "/></g></g></g><g fill="#000000" fill-opacity="1"><g transform="translate(308.172146, 215.328037)"><g><path d="M 6.828125 -0.96875 L 6.828125 0 L 1.171875 0 L 1.171875 -7.796875 L 6.671875 -7.796875 L 6.671875 -6.828125 L 2.28125 -6.828125 L 2.28125 -4.4375 L 6.1875 -4.4375 L 6.1875 -3.484375 L 2.28125 -3.484375 L 2.28125 -0.96875 Z M 6.828125 -0.96875 "/></g></g></g><g fill="#000000" fill-opacity="1"><g transform="translate(318.398909, 215.328037)"><g><path d="M 6.390625 0 L 4.703125 -2.390625 C 4.492188 -2.378906 4.332031 -2.375 4.21875 -2.375 L 2.28125 -2.375 L 2.28125 0 L 1.171875 0 L 1.171875 -7.796875 L 4.21875 -7.796875 C 5.21875 -7.796875 6.007812 -7.550781 6.59375 -7.0625 C 7.175781 -6.582031 7.46875 -5.921875 7.46875 -5.078125 C 7.46875 -4.472656 7.316406 -3.957031 7.015625 -3.53125 C 6.722656 -3.113281 6.300781 -2.8125 5.75 -2.625 L 7.59375 0 Z M 4.171875 -3.3125 C 4.878906 -3.3125 5.414062 -3.460938 5.78125 -3.765625 C 6.15625 -4.078125 6.34375 -4.515625 6.34375 -5.078125 C 6.34375 -5.640625 6.15625 -6.070312 5.78125 -6.375 C 5.414062 -6.675781 4.878906 -6.828125 4.171875 -6.828125 L 2.28125 -6.828125 L 2.28125 -3.3125 Z M 4.171875 -3.3125 "/></g></g></g></svg>